<?xml version="1.0" encoding="UTF-8" standalone="no"?>
<svg
   xmlns:dc="http://purl.org/dc/elements/1.1/"
   xmlns:cc="http://creativecommons.org/ns#"
   xmlns:rdf="http://www.w3.org/1999/02/22-rdf-syntax-ns#"
   xmlns:svg="http://www.w3.org/2000/svg"
   xmlns="http://www.w3.org/2000/svg"
   xmlns:sodipodi="http://sodipodi.sourceforge.net/DTD/sodipodi-0.dtd"
   xmlns:inkscape="http://www.inkscape.org/namespaces/inkscape"
   version="1"
   width="533.333"
   height="533.333"
   viewBox="0 0 400.000000 400.000000"
   id="svg3760"
   sodipodi:docname="safari-pinned-tab.svg"
   inkscape:version="0.92.4 (5da689c313, 2019-01-14)">
  <metadata
     id="metadata3766">
    <rdf:RDF>
      <cc:Work
         rdf:about="">
        <dc:format>image/svg+xml</dc:format>
        <dc:type
           rdf:resource="http://purl.org/dc/dcmitype/StillImage" />
      </cc:Work>
    </rdf:RDF>
  </metadata>
  <defs
     id="defs3764" />
  <sodipodi:namedview
     pagecolor="#ffffff"
     bordercolor="#666666"
     borderopacity="1"
     objecttolerance="10"
     gridtolerance="10"
     guidetolerance="10"
     inkscape:pageopacity="0"
     inkscape:pageshadow="2"
     inkscape:window-width="2560"
     inkscape:window-height="1377"
     id="namedview3762"
     showgrid="false"
     inkscape:zoom="1.7700011"
     inkscape:cx="267.92281"
     inkscape:cy="253.88168"
     inkscape:window-x="-8"
     inkscape:window-y="-8"
     inkscape:window-maximized="1"
     inkscape:current-layer="svg3760" />
  <path
     id="path3754"
     transform="scale(0.75000046)"
     style="stroke-width:1.33333254"
     d="m 265.59961,37.550781 c -0.20741,-0.01266 -0.40703,-0.01294 -0.59375,0.002 -0.49792,0.03958 -0.90534,0.180599 -1.13867,0.447266 -0.66667,0.533333 -7.73387,1.334115 -23.86719,2.800781 -12.39999,1.066666 -13.99961,1.465366 -13.59961,3.332031 0.26667,1.066669 1.06576,5.201175 1.73242,9.201172 0.66667,3.999998 1.86654,10.266669 2.53321,14 0.8,3.599998 1.73333,8.7987 2,11.332032 0.26666,2.533331 1.2,7.599741 2,11.066406 l 1.73437,6.40039 6.13281,-0.533203 c 5.6,-0.533333 6.13244,-0.79909 5.73242,-3.732421 C 248.13229,90.133806 248,87.332421 248,85.732422 c 0,-1.599999 -0.66732,-4.531772 -1.33398,-6.398438 -2.26667,-6.133329 0.26706,-8.667057 8.40039,-8.40039 3.86666,0.133333 7.73268,-0.134113 8.66601,-0.800782 0.8,-0.533333 2.13412,-0.665626 2.80078,-0.265624 1.46667,0.933332 2.79922,-8.933334 1.19922,-10 -1.2,-0.800002 -6.39948,-0.534505 -14.13281,0.798828 -7.33333,1.199999 -10.66602,-0.798441 -10.66602,-6.398438 v -4.535156 l 12.66602,-0.132813 c 6.93333,-0.133333 13.20052,-0.666406 13.86719,-1.066406 1.46666,-0.799999 1.59948,-7.332553 0.13281,-9.199219 -0.7,-0.962499 -2.54813,-1.694592 -4,-1.783203 z m 42.11523,5.101563 c -2.98593,0.03672 -5.04882,0.380078 -5.04882,1.080078 0,0.666666 -2.13269,1.866928 -4.66602,2.933594 -2.53333,1.066666 -5.73359,3.334504 -6.93359,5.201172 -2.26667,3.599997 -5.86654,19.598828 -4.53321,20.798828 0.4,0.533333 0.80078,2.400391 0.80078,4.40039 0.13334,6.666663 5.59949,15.333466 12.13282,19.466797 5.19999,3.333331 7.59909,3.866667 15.73242,3.999997 8.53333,0.13334 10.00104,-0.26562 15.73437,-4.265622 8.66667,-5.999996 14.79948,-18.401829 14.13282,-28.535156 -0.4,-7.599995 -0.7991,-8.26576 -7.73243,-15.732422 -3.33333,-3.466665 -6.93424,-5.59922 -12.26757,-7.199219 -4.83333,-1.416666 -12.37501,-2.209635 -17.35157,-2.148437 z m 10.06836,10.033203 c 3.12129,0.09912 6.01628,1.413804 8.34961,3.980469 3.33333,3.599997 5.60117,15.201303 3.20117,16.667968 -0.8,0.533333 -1.46731,1.331902 -1.33398,1.865235 1.33333,5.599996 -6.93256,15.466797 -13.19922,15.466797 -5.33333,0 -12.13476,-3.733203 -12.13476,-6.533204 0,-1.466665 -0.53204,-2.933463 -1.33204,-3.466796 -0.66666,-0.4 -0.9332,-4.665759 -0.5332,-9.732422 0.66667,-7.599996 1.19987,-9.466018 4.5332,-12.666016 4.05,-3.824998 8.43614,-5.709472 12.44922,-5.582031 z m -130.58984,0.291015 c -1.29818,-0.01823 -3.10938,0.522788 -5.85938,1.689454 -3.33333,1.333332 -7.06705,2.80117 -8.40039,3.201172 -2.13333,0.666666 -2.40104,1.86641 -1.73437,9.066406 0.4,4.666664 1.06732,10.533074 1.33398,13.066406 0.4,2.533332 0.93399,7.466929 1.33399,10.933594 0.4,3.466664 1.19909,8.000009 1.73242,9.999996 0.93333,4 1.20013,5.33334 1.4668,12 0.26666,3.33334 0.93411,4.40039 2.80078,4.40039 1.33333,0 3.19948,-0.93333 4.13281,-2 0.93333,-1.06666 2.40065,-2 3.33398,-2 1.46667,0 1.46511,-1.06693 0.39844,-4.93359 -1.2,-4.13333 -0.93216,-5.20078 1.20117,-6.80078 1.33334,-0.93333 3.99948,-2.133204 6.13282,-2.533204 2,-0.4 3.59961,-1.200521 3.59961,-1.867187 0,-0.666667 1.19987,-1.199219 2.5332,-1.199219 1.46666,0 3.0668,-0.667318 3.4668,-1.333984 C 205.86601,92.666017 208,93.065887 208,95.199219 c 0,1.066666 1.46732,3.201301 3.33398,4.667969 2.93334,2.133332 4.13204,2.399222 7.33204,1.199222 2.26666,-0.66667 4.26653,-1.732296 4.5332,-2.265629 0.26667,-0.4 -1.46667,-3.200001 -4,-6 -2.53333,-2.799998 -4.5332,-5.466667 -4.5332,-6 0,-0.533333 -1.86615,-3.06823 -4.13282,-5.601562 -2.26666,-2.533332 -5.06756,-5.998569 -6.26758,-7.865235 -3.86666,-5.733329 -13.33255,-18.134376 -15.19921,-19.734375 -0.5,-0.399999 -1.09414,-0.612107 -1.87305,-0.623047 z m 183.47266,9.689454 -2.9336,5.601562 c -1.73333,3.199998 -3.0664,6.266407 -3.0664,7.066406 0,0.666667 -1.19987,3.466669 -2.53321,6 -1.33333,2.533332 -3.33372,6.265627 -4.40039,8.265625 C 356.66576,91.599608 355.3332,93.6 354.5332,94 c -0.66666,0.533333 -1.19922,1.865886 -1.19922,3.199219 0,1.333332 -0.93333,3.201431 -2,4.134761 -1.06666,0.93334 -1.60117,2.13217 -1.20117,2.79883 0.4,0.66667 0.13399,1.20117 -0.66601,1.20117 -0.8,0 -1.06797,0.79857 -0.66797,1.86524 0.4,1.06666 0.13398,2.26745 -0.66602,2.80078 -0.8,0.4 -1.46679,1.33333 -1.46679,2 0,1.06667 9.33333,7.06706 10,6.40039 0.13333,-0.26667 2.8,-4.40013 6,-9.4668 5.19999,-8.26666 8,-10.933464 8,-7.46679 0,0.66666 0.5345,1.06601 1.20117,0.66601 0.53333,-0.4 1.73268,0.80131 2.66601,2.66797 1.73334,4 1.99896,11.19922 0.26563,11.19922 -0.66667,0 -1.46576,2.79896 -1.73242,6.26562 -0.53334,5.86669 -0.26654,6.80001 3.46679,10 4.8,4.40002 6.13282,4.66732 6.13282,1.33399 0,-1.33333 0.5345,-2.93242 1.20117,-3.73242 1.73333,-1.6 4.39869,-18.39974 3.33203,-21.06641 -0.66667,-1.73333 0.13477,-2.13476 4.13476,-2.13476 10.93333,0 17.86537,-10.933211 13.33204,-20.533208 -1.33334,-2.799998 -3.33321,-5.465234 -4.53321,-5.865234 -1.2,-0.4 -2.79961,-1.734115 -3.59961,-2.800781 -0.93333,-1.066666 -4.53281,-3.600131 -8.13281,-5.466797 -3.73333,-1.866666 -9.20141,-4.667058 -12.13477,-6.400391 z m -185.71094,7.910156 c 2.09521,0.315429 13.58594,11.691407 13.71094,13.691406 0,1.066666 -5.73282,4.266275 -10.13282,5.59961 -2.66666,0.799999 -2.93242,0.266791 -3.73242,-8.533204 -0.53333,-5.066663 -0.53476,-10.001302 -0.13476,-10.667968 0.05,-0.08333 0.14938,-0.110881 0.28906,-0.08984 z m 195.57812,8.490234 4.53321,2.666016 c 2.53333,1.466666 4.93294,3.866798 5.59961,5.466797 C 391.86601,90.53255 388.8,97.333984 386,97.333984 c -4,0 -12.66602,-5.067319 -12.66602,-7.333984 0,-0.533333 1.59961,-3.20052 3.59961,-5.867188 z m -246.25976,1.09375 c -0.74488,0.07866 -1.30274,0.709636 -1.74024,1.839844 -0.4,1.066666 -2.13294,2.267448 -3.59961,2.800781 -3.46666,1.066666 -9.20039,6.931772 -8.40039,8.398438 0.4,0.533333 0.93399,2.400912 1.33399,4.267578 0.8,3.866663 3.33359,11.598833 4.93359,14.798823 1.2,2.40002 1.73268,10.4004 0.66602,10.4004 -0.4,0 -2.26706,-0.6668 -4.40039,-1.4668 -2,-0.8 -4.93373,-1.59857 -6.40039,-1.86524 C 115.19935,119.06732 110.39948,117.6 106.13281,116 l -7.999998,-2.80078 -6.40039,6.93359 c -3.599998,3.73333 -6.265236,7.59987 -5.865234,8.53321 0.266666,0.8 3.865236,3.73372 7.865234,6.40039 3.999997,2.66666 7.601428,5.86692 8.134768,6.93359 0.4,1.2 1.19857,1.8668 1.86523,1.4668 0.53333,-0.26667 3.60131,1.73268 6.66797,4.66601 3.2,2.8 6.26641,5.20117 7.06641,5.20117 0.66666,0 3.0668,1.73334 5.46679,4 2.26667,2.13334 4.93386,4 5.86719,4 1.73333,0 5.86524,-4.93359 5.86524,-6.93359 0,-0.93333 -3.99923,-4.80079 -13.19922,-12.80078 -7.73333,-6.8 -10.26667,-9.20013 -12,-11.4668 -1.86667,-2.26666 -1.59935,-2.26536 3.33398,-1.33203 2.8,0.53333 5.46524,1.3319 5.86524,1.86524 0.4,0.4 3.73398,1.6013 7.33398,2.66796 3.73333,0.93334 7.46706,2.39974 8.40039,3.06641 1.2,0.93333 2.5336,0.26575 4.93359,-2.26758 3.06667,-3.33333 3.1987,-3.7332 1.33204,-8.5332 -1.73334,-4.4 -3.33347,-10.26667 -5.4668,-20 -0.93333,-4.53333 1.33346,-3.46627 5.4668,2.40039 1.99999,2.93333 4.26744,5.33398 4.80078,5.33398 0.66666,0 1.19922,0.79961 1.19922,1.59961 0,0.93334 2.93372,4.9336 6.40039,8.9336 l 6.40039,7.19922 L 163.73242,128 c 4.26667,-3.06666 4.2681,-4.80052 0.13477,-9.86719 -3.06667,-3.86666 -10.8004,-14.66524 -18.40039,-25.865232 -5.59167,-8.158328 -8.85199,-11.905469 -10.86328,-12.107422 -0.11428,-0.01148 -0.22367,-0.01124 -0.33008,0 z m 124.23828,31.246094 c -4.65316,0.0319 -9.01172,0.26823 -12.51172,0.72656 -14.66666,2 -17.06641,2.53321 -21.06641,4.53321 -2.26666,1.06666 -5.06758,2 -6.26757,2 -1.33334,0 -3.06667,0.93333 -4,2 -0.93334,1.06666 -2.13217,2 -2.79883,2 -1.06667,0 -10.13321,5.60052 -12.53321,7.86718 -2.66666,2.4 -8.26666,8.93282 -12,14.13282 -2.26666,2.93333 -4.53398,5.73424 -5.33398,6.26757 -0.66667,0.53334 -0.93372,1.06641 -0.40039,1.06641 0.53333,0 -0.66654,3.33347 -2.5332,7.4668 -2.53334,5.59999 -3.46628,9.86706 -3.59961,16.40039 0,7.59999 0.66693,10.13216 4.93359,18.79883 4.93333,9.99999 7.86537,14.66796 9.33203,14.66796 0.4,0 0.93451,-2.80039 1.20117,-6.40039 0.53334,-4.53333 -0.26653,-8.53281 -2.5332,-14.13281 -1.6,-4.4 -3.06693,-9.46732 -2.93359,-11.33398 0.13333,-3.46667 0.13255,-3.46628 1.19922,0.40039 1.73333,5.73333 6.66692,10.5332 8.93359,8.5332 2.93333,-2.4 3.4664,-0.26653 1.06641,3.4668 -2.13334,3.2 -2.13282,3.86602 -0.13282,8.66601 1.86667,4.66667 1.86667,6.1336 0,12.9336 -1.06666,4.13333 -2.40026,8.2664 -2.93359,9.0664 -0.4,0.8 -0.93359,1.73282 -0.93359,2.13282 -0.13334,0.4 -0.93191,4.00143 -1.86524,8.13476 -1.06666,4.13333 -1.46836,8.93268 -1.06836,10.66602 0.93333,3.73333 11.60052,15.19922 13.86719,15.19922 5.06666,0 14.53294,10.13464 15.59961,16.66796 0.66667,4.26667 1.33307,5.2 5.0664,6 2.40002,0.66667 5.33464,1.065 6.66797,0.93164 1.2,-0.13333 2.79909,0.66771 3.73243,1.73438 1.19999,1.46667 0.93359,1.59922 -1.06641,1.19922 -1.33333,-0.4 -3.19948,0.26732 -4.13281,1.33398 C 226.93347,287.46653 224.93333,287.2 226,284 c 0.53333,-1.86667 0.26745,-2.66602 -1.19922,-2.66602 -2.53333,0 -4.66719,3.73217 -3.86719,6.79883 0.53334,2 1.19922,2.13307 3.19922,1.06641 2,-0.93333 2.80065,-0.79922 3.33399,0.80078 1.2,3.06666 5.59935,2.40026 6.66601,-1.06641 1.2,-3.73333 5.73438,-7.73463 7.73438,-6.66797 4.93333,2.80002 5.86653,4.6685 4.5332,8.53516 -1.06667,3.06667 -0.79974,4.26667 0.93359,6 2,2.13333 2.39844,2.13333 4.39844,0 1.86667,-1.86666 1.99989,-2.80039 0.5332,-6.40039 -1.73333,-4.66666 -1.33268,-5.86758 1.33399,-4.26758 0.93333,0.66667 2.93372,0.93464 4.40039,0.66797 2.4,-0.26667 2.53372,-0.13515 0.40039,1.46484 -1.2,0.93336 -2.00104,3.2017 -1.73437,5.06836 0.13333,1.86667 0.39987,4.13308 0.5332,5.06641 0.13333,1.73333 6.4013,0.93359 8.66797,-1.06641 1.33333,-1.33333 -1.46821,-10.26783 -3.60157,-11.20117 -0.93333,-0.26666 -0.53255,-0.66601 0.80079,-0.66601 1.33333,-0.13334 2.6664,0.80052 3.0664,1.86718 0.66667,1.73334 1.20026,1.73177 2.9336,0.39844 1.06666,-0.93333 3.86614,-1.86666 6.13281,-2 6.79999,-0.4 14.13476,-1.99831 14.13476,-2.93164 0,-0.93333 2.40001,-1.46719 10,-1.86719 4.13334,-0.26666 4.80013,-0.80128 5.4668,-4.66797 0.53333,-2.39999 1.9987,-5.06614 3.33203,-6.13281 1.33334,-0.93333 2.13438,-2.00039 1.73438,-2.40039 -0.4,-0.4 1.0664,-1.99961 3.0664,-3.59961 2,-1.6 5.19883,-4.00013 6.79883,-5.46679 1.73333,-1.46667 4.66706,-3.0668 6.40039,-3.4668 1.73333,-0.4 3.20117,-1.46511 3.20117,-2.39844 0,-0.8 1.33217,-2.26784 2.79883,-3.20117 2.66667,-1.6 2.80091,-2.6673 2.26758,-11.33399 -0.4,-6.79999 -1.7332,-12.26562 -4.5332,-18.26562 -4.93333,-11.06666 -4.80117,-16.66733 0.79883,-31.33398 3.46666,-9.33333 4.13346,-12.66641 3.46679,-17.06641 -0.66666,-4.26666 -0.53346,-5.19948 0.53321,-4.13281 1.99999,2 2.26705,15.86614 0.40039,18.13281 -1.33334,1.6 -3.73399,11.33398 -3.33399,13.33398 0.13334,0.53334 0.39987,4.26563 0.5332,8.26563 0.13336,4 0.5336,7.06797 0.9336,6.66797 0.4,-0.26667 1.46706,1.33242 2.40039,3.73242 2.13333,5.06666 2.93255,4.2677 7.19922,-6.26563 1.73333,-4.39999 3.60091,-8.40078 4.26758,-8.80078 0.53333,-0.4 1.46718,-6.53294 1.86718,-13.59961 0.53334,-10.13332 0.26706,-14.40052 -1.59961,-19.86718 C 344.26732,159.46641 338.79922,148 337.19922,148 336.53255,148 336,147.06667 336,146 c 0,-1.06667 -0.6668,-2 -1.4668,-2 -0.66666,0 -1.06653,-0.53255 -0.5332,-1.19922 0.4,-0.66667 -0.53333,-1.60143 -2,-2.13476 -1.46667,-0.4 -2.66602,-1.59935 -2.66602,-2.66602 0,-0.93333 -2.26692,-2.53346 -4.93359,-3.4668 -2.8,-0.8 -5.60039,-1.86756 -6.40039,-2.26758 -0.66667,-0.39999 -2.2668,-0.93164 -3.4668,-0.93164 -3.06666,-0.26666 -13.06641,-6.53333 -19.0664,-12 -2.8,-2.53333 -6.4,-5.06731 -8,-5.33398 -7.05833,-1.74167 -18.71814,-2.66393 -28.95508,-2.59375 z m 168.55469,3.92773 c -4.66667,0 -7.59936,1.06511 -12.66602,4.39844 -3.6,2.4 -7.2,5.86771 -8,7.73438 -0.8,1.73333 -1.86706,3.19922 -2.40039,3.19922 -0.93333,0 -2.39948,3.73346 -2.13281,5.46679 0.13333,0.4 -0.53451,1.60131 -1.20117,2.66797 -2.4,3.06667 -0.40052,21.19922 2.13281,21.19922 0.66666,0 1.20117,0.66732 1.20117,1.33398 0,1.33334 4.66563,6.39975 10.26562,11.06641 2.80002,2.4 2.93438,2.39922 7.73438,-0.80078 l 4.93359,-3.33399 -3.0664,-1.5996 c -1.73333,-0.93334 -5.4681,-3.99883 -8.13477,-6.79883 -3.86666,-4.26667 -4.79844,-6.00155 -4.39844,-9.60157 0.8,-9.33332 8.79975,-18.79895 17.06641,-20.26562 4.13333,-0.66667 11.33281,-0.13255 12.13281,0.80078 5.46667,7.2 7.60079,10.93282 8.80078,16.13281 0.93334,3.6 1.99987,6.40039 2.53321,6.40039 0.4,0 2.66641,-1.2013 5.0664,-2.66796 l 4.26563,-2.53321 -2,-5.0664 c -1.06667,-2.8 -2.66628,-6.53373 -3.59961,-8.40039 C 453.59961,130.26602 443.73242,120 441.73242,120 440.79909,120 440,119.33268 440,118.66602 c 0,-0.8 -1.06706,-1.33204 -2.40039,-1.33204 -1.33333,0 -2.93346,-0.40167 -3.4668,-1.06836 -0.53333,-0.53333 -3.73307,-0.93164 -7.0664,-0.93164 z M 287.05078,131.2832 c 0.28333,-0.0167 0.74909,0.31576 1.48242,0.98242 1.06667,0.93336 1.59922,2.13464 1.19922,2.66797 -0.26666,0.66667 0.13503,1.06641 1.06836,1.06641 0.93333,0 1.19883,0.40078 0.79883,0.80078 -1.2,1.2 -4.93359,-2.13372 -4.93359,-4.40039 0,-0.73333 0.10143,-1.10052 0.38476,-1.11719 z M 76.263672,154.96875 c -1.163281,0.0461 -2.413673,0.46406 -4.263672,1.16406 -1.733332,0.8 -4.40052,2.66615 -5.867188,4.13281 -3.066664,3.33336 -7.466796,11.60001 -7.466796,14 0,0.93336 -0.532032,1.73438 -1.332032,1.73438 C 56.667318,176 56,176.79909 56,177.73242 c 0,0.93333 -1.199871,4.13503 -2.533203,7.06836 -3.599998,7.46666 -2.933069,10.26524 2.933594,11.86524 2.533331,0.66666 5.199088,1.73424 5.732421,2.26757 C 62.666148,199.60026 65.066278,200 67.599609,200 69.999608,200 72,200.53255 72,201.19922 c 0,1.06666 4.800654,2.93489 9.333984,3.60156 C 82.40065,204.93411 86.666018,206.4 90.666016,208 100.79934,212 102.4,212.26588 104,209.19922 c 0.8,-1.33333 1.06745,-2.5332 0.80078,-2.5332 -0.4,0 -0.13346,-1.46537 0.5332,-3.33204 C 106.40065,200.53399 106.26667,200 104,200 c -1.33333,0 -2.79922,-0.53255 -3.19922,-1.19922 -0.4,-0.66667 -2.400911,-1.6 -4.267577,-2 -1.866665,-0.53333 -4.933204,-1.86693 -6.533203,-2.93359 -2.666665,-1.73333 -2.932421,-2.53451 -1.732422,-5.20117 1.999999,-4.4 5.86603,-5.5987 16.666012,-5.33204 10.53333,0.26667 12.8004,-0.93346 14.40039,-7.46679 l 0.79883,-3.4668 -12,-0.93359 c -7.59999,-0.66667 -12.933202,-0.53295 -14.533201,0.40039 -2.399998,1.33333 -2.666795,0.79908 -3.466797,-4.26758 -0.799999,-4.8 -1.733726,-6.2673 -6.40039,-9.33399 -3.833331,-2.41666 -5.529949,-3.37369 -7.46875,-3.29687 z M 472.5332,165.86719 c -0.66666,-0.13334 -6.53255,2.26628 -13.19922,5.59961 -12.39999,6.13333 -32.135,16.39896 -35.06836,18.26562 -1.19999,0.8 -1.1996,2.00026 0.4004,4.9336 1.19999,2.26666 2.13281,4.40026 2.13281,4.93359 0.13333,0.66667 0.80013,2.53372 1.46679,4.40039 0.66669,1.86667 1.46771,4.26732 1.73438,5.33398 0.26667,1.06667 1.4655,4.26498 2.79883,6.93164 1.73333,3.73336 2.80091,4.66719 4.26758,3.86719 1.06666,-0.66666 3.06705,-0.79987 4.40039,-0.5332 3.46666,0.93333 3.33385,-3.46693 -0.13282,-12.93359 -1.46666,-4 -2.66796,-7.99883 -2.66796,-8.79883 0,-2.26667 9.60013,-5.86706 11.46679,-4.40039 0.93334,0.66666 1.86758,2.93307 2.26758,5.0664 0.4,2.13334 1.86589,6.26732 3.19922,9.33399 2.53333,5.73333 5.06628,6.79856 9.59961,3.86523 2.13333,-1.2 2.26784,-2.13164 1.20117,-4.93164 -0.8,-1.86666 -1.86706,-4.6681 -2.40039,-6.13476 -4.26666,-10.53333 -4.39987,-14 -0.5332,-14 1.06666,0 1.86718,-0.66537 1.86718,-1.33204 0,-0.8 1.06511,-1.33398 2.39844,-1.33398 1.73333,0 3.33373,2.9323 6.40039,12.26562 3.6,10.66669 4.66732,12.40079 7.33399,12.80079 5.33333,0.53333 6.93346,-1.33321 5.46679,-6.53321 C 484.93359,195.86654 480,182.53333 478,178 c -1.06667,-2.26667 -2.39974,-5.73386 -3.06641,-7.86719 -0.53333,-2.26666 -1.60039,-4.13229 -2.40039,-4.26562 z m -258.58789,4.03515 c 0.18809,0.0348 0.34258,0.19803 0.45508,0.49805 0.26667,0.8 -0.80039,3.73229 -2.40039,6.26563 -1.6,2.53333 -3.46758,4.66796 -4.26758,4.66796 -0.8,0 -0.53346,-1.335 0.5332,-3.06836 1.06669,-1.59999 2.80105,-4.39895 3.73438,-6.26562 0.66667,-1.25 1.28125,-1.97917 1.74609,-2.08984 0.0697,-0.0166 0.13653,-0.0192 0.19922,-0.008 z m -139.462888,0.81641 c 1.307454,0.0179 2.735027,0.44792 4.318359,1.28125 4.666664,2.53333 2.398697,16 -2.667969,16 -1.466665,0 -3.066797,-0.66732 -3.466796,-1.33398 -0.4,-0.8 -2.266147,-1.33204 -4.132813,-1.33204 -3.733331,0 -4.267316,-3.06797 -1.333984,-8.66796 2.108332,-4.03334 4.406805,-5.98666 7.283203,-5.94727 z m 128.318358,10.61523 c 1.46667,0 2.26524,0.53204 1.86524,1.33204 -0.4,0.66666 -1.73217,1.33398 -2.79883,1.33398 C 200.80052,184 200,183.33268 200,182.66602 c 0,-0.8 1.20078,-1.33204 2.80078,-1.33204 z m 21.86524,20.13282 c 0.8,0 4.40143,0.66575 8.13476,1.73242 13.33333,3.6 19.73229,9.73386 16.26563,15.86719 -0.93334,1.6 -1.46732,3.33385 -1.33399,3.86718 0.13334,0.53334 -3.33294,4.5336 -7.59961,8.9336 C 232.93282,239.46718 231.99987,240 226.5332,240 c -6.79999,0 -10.40039,-2.53436 -14.40039,-9.73438 C 208.53281,223.86563 208.53334,216 212,212 c 1.46667,-1.73333 2.66602,-3.7332 2.66602,-4.5332 0,-1.46667 7.33333,-5.86667 10,-6 z m 76.26757,1.33398 c 0.8,0 3.19974,0.53255 5.06641,1.19922 5.73333,2.13333 12.66602,10.13321 12.66602,14.5332 0,7.86666 -1.86693,12.66576 -6.9336,17.73242 -5.33333,5.33336 -10.53203,6.53386 -17.33203,3.86719 -5.06666,-1.86666 -14.53398,-15.1987 -15.33398,-21.33203 -0.8,-5.46666 1.33437,-10.26797 3.73437,-8.66797 0.66667,0.4 1.19922,0.13399 1.19922,-0.66601 0,-1.2 12.80026,-6.26602 16.93359,-6.66602 z M 97.160156,224.24023 c -1.733592,0.0219 -4.776175,0.55938 -9.826172,1.35938 -4.399997,0.66667 -13.734639,2.13451 -20.667968,3.20117 C 59.732687,229.86745 51.333331,231.0668 48,231.4668 c -3.333331,0.4 -6.400261,1.19961 -6.933594,1.59961 -0.4,0.53333 -1.199089,4.79961 -1.732422,9.59961 -1.066666,10.13332 -2.53332,8.80078 18,16.80078 6.933329,2.66666 13.332813,5.33333 14.132813,6 0.799999,0.66666 2.533334,1.33294 4,1.59961 1.333332,0.26666 5.20039,1.73398 8.400391,3.33398 3.333331,1.6 7.067058,2.93359 8.40039,2.93359 2.133332,0 2.399088,-0.66834 1.732422,-5.06836 -1.333333,-7.59999 -1.465758,-7.86601 -5.732422,-8.66601 -4.799997,-0.93333 -5.333853,-3.06719 -3.867187,-13.86719 1.199999,-8.53333 2.532947,-9.99896 9.599609,-10.26562 1.866666,-0.13334 2.932813,-1.73386 4.132812,-5.86719 1.166668,-4 1.916668,-5.39583 -0.972656,-5.35938 z m 382.572264,5.49219 c -6.66666,0 -7.33203,0.26784 -11.33203,5.20117 -3.06666,3.73333 -4.26719,6.39987 -3.86719,8.53321 0.4,1.73333 0.13347,3.46718 -0.5332,3.86718 -0.66667,0.4 -0.9332,1.46654 -0.5332,2.53321 0.4,0.93333 -0.1336,3.46627 -0.9336,5.59961 -0.93333,2.13333 -1.60013,4.26549 -1.46679,4.79882 0.4,1.73336 -6.53282,2.80118 -8.13282,1.20118 -3.19999,-3.2 -4.26744,-10.00014 -2.80078,-17.4668 0.8,-4 1.33308,-7.60102 1.06641,-7.73438 -0.13333,-0.26666 -2.79961,-0.13294 -5.59961,0.4004 -4.93333,0.8 -5.33333,1.20104 -6,5.73437 -0.8,6.93333 -0.26706,15.99896 1.59961,22.26563 1.73333,6.53332 7.73386,10.66783 15.86719,11.20117 5.33333,0.26666 13.59961,-3.0668 13.59961,-5.4668 0,-0.4 0.66627,-2.53464 1.5996,-4.66797 1.86669,-4.53333 2.1336,-6.26678 2.9336,-13.4668 0.93333,-9.06666 4.53294,-11.86536 9.59961,-7.33203 3.2,2.93334 3.60117,9.33204 1.20117,19.33203 -1.46667,6.26669 -1.46667,7.73438 0,7.73438 0.93333,0 3.46576,0.40078 5.73242,0.80078 3.46667,0.66667 4.13425,0.39844 4.26758,-1.60156 0,-1.46667 0.26602,-7.33204 0.66602,-13.33203 0.66666,-13.06666 -0.66667,-18.6681 -6,-24.13477 -3.33334,-3.46666 -4.9336,-4 -10.9336,-4 z m -220.58594,8.05078 c 1.61641,0.009 3.85391,0.33282 7.25391,0.88282 0.13333,0 0.26563,0.5345 0.26563,1.20117 0,0.8 1.33307,2.79987 3.0664,4.5332 4.66667,5.06666 8.00091,15.86576 6.26758,19.73242 -1.73333,3.86667 -7.46654,6.80013 -10.5332,5.4668 -1.2,-0.66667 -4.26745,-0.66563 -6.80078,-0.26563 -5.33333,0.93334 -11.99961,-0.53359 -13.59961,-2.93359 -2,-3.33333 -1.06576,-10.53438 2.26757,-15.73437 1.86667,-2.93334 3.33204,-5.59857 3.33204,-5.86524 0,-0.26667 1.33307,-2.13333 3.0664,-4 1.75,-2.16666 2.72006,-3.0319 5.41406,-3.01758 z m -187.064449,0.83203 c 2.52604,-0.0221 2.735026,1.96876 2.31836,6.71875 -0.4,3.73334 -0.933985,7.0668 -1.333985,7.4668 -0.4,0.4 -4.132815,-0.93411 -8.132812,-2.80078 -4.133331,-1.86667 -8.134113,-3.33398 -8.800782,-3.33398 -1.333332,0 -1.732551,-1.19909 -1.199218,-3.73243 0,-0.53333 1.065625,-0.8013 2.265625,-0.66797 1.199999,0.26669 4.533465,-0.53294 7.466797,-1.5996 3.549997,-1.3 5.900391,-2.0375 7.416015,-2.05079 z" />
  <path
     d="M297.3 186.2c-2.7 1.6-3.3 2.6-3.3 5.3 0 1.9.5 3.7 1 4 .6.3 1 1.3 1 2.1s-.4 1.4-1 1.4c-.5 0-1-.7-1-1.5 0-1.9-.9-1.9-3.4 0-1.1.8-2.8 1.5-3.8 1.5s-1.8.4-1.8 1c0 .5-1.8 1.5-4 2.1-2.2.7-4.5 1.8-5.1 2.6-.6.7-2 1.3-3 1.3s-2.1.5-2.4 1.1c-.4.6-1.3.8-2.1.5-.8-.3-1.4-.1-1.4.5 0 .5-1 1.4-2.2 1.9-1.3.6-3 1.4-3.8 1.9-3.8 2.4-47.4 23.1-48.6 23.1-.8 0-1.4.4-1.4.9s-1 1.3-2.2 1.6c-1.3.4-4.7 2.5-7.5 4.6-3 2.2-5.3 3.4-5.3 2.7 0-1.6-5.4-4.8-8-4.8-1 0-2.2-.5-2.5-1-.3-.6-1.5-1-2.6-1-1 0-1.9-.4-1.9-.9s-1.5-1.2-3.4-1.5c-1.9-.4-3.6-1-3.8-1.4-.2-.4-3-1.7-6.3-2.8-6.6-2.3-14.7-5.6-21.1-8.5-2.3-1.1-4.8-1.9-5.7-1.9-.8 0-1.7-.3-1.9-.8-.1-.4-3.7-2-7.8-3.5-4.1-1.6-8.8-3.5-10.3-4.3-1.6-.8-3.4-1.4-4-1.4-.7 0-3-.9-5.1-2.1-4-2.1-6.6-2-6.6.5 0 1.3 2.3 2.6 5.7 3.2 1.3.2 11.5 4.8 14.5 6.4 1 .6 2.3 1 2.8 1 1 0 14.3 5.3 41.8 16.7 3.4 1.4 6.2 3 6.2 3.5s-.9.4-1.9-.2c-3.3-1.7-4.6-1.2-6.8 2.7-1.9 3.5-6.3 15.6-6.3 17.4 0 .5 1.2 1.5 2.8 2.3 1.5.8 2.1 1.5 1.4 1.6-.7 0-2-.4-3-.9-.9-.5-4.8-2.2-8.7-3.6-3.8-1.5-7.4-3-8-3.4-.5-.4-3.9-1.8-7.5-3.1-3.6-1.2-9.3-3.6-12.8-5.1-3.4-1.6-6.8-2.9-7.5-2.9-.6 0-3.9-1.4-7.2-3-3.3-1.6-6.4-3-7-3-1.4 0-9.5-4.4-9.5-5.1 0-.4 1.6-4.1 3.5-8.3 1.9-4.3 3.5-8.5 3.5-9.5 0-.9.4-2.1.9-2.6 2.3-2.6 4.2-17.3 2.1-16-.6.4-1.8.1-2.6-.6-1.9-1.6-7.5-1.4-8.5.3-.5.7-.9 2.2-.9 3.4 0 3.7-4 14.7-9.3 25.4-2.9 5.7-5.2 11.1-5.2 12 0 1.4 2.3 2.4 8.7 3.7 2.3.4 3.1 0 4.5-2.6 2-3.5 3.8-4.2 2.8-1.1-.4 1.4-.2 2 .9 2 2 0 15 5.3 15.4 6.2.2.5 1.3.8 2.4.8 1.1 0 3.2.6 4.6 1.4 1.5.8 5.2 2.4 8.2 3.6 5.9 2.3 7.1 2.8 14 5.8 2.5 1.1 5.7 2.3 7.3 2.6 1.5.4 2.7 1.1 2.7 1.7 0 .6.4.8.9.5.5-.3 3 .3 5.5 1.5 2.6 1.1 6.5 2.4 8.9 2.8l4.2.8-3 1.2c-4.9 2-11.9 5.2-13.5 6.2-.8.5-3.1 1.6-5 2.5-5.2 2.3-18.4 8.7-18.9 9.1-.2.1-.4 1.6-.4 3.3 0 2.5-.6 3.1-3.4 4.1-1.8.6-3.3 1.5-3.3 2s-.6.9-1.2.9c-2.6.1-16.3 7.7-16 8.8.1.7-.2 1.2-.8 1.2-.5 0-1-.5-1-1 0-.6-.9-1-2-1-2.5 0-7 2.1-7 3.2 0 .8 2.8 6.7 3.5 7.6.5.6 5.9-3.1 7.2-4.9 1.1-1.4 9.6-6.3 11.3-6.4.3 0 5.3-2.5 11.3-5.4 5.9-3 11-5.2 11.3-4.8.3.3-1 1.2-2.9 2-4.9 2.1-5.6 3.7-1.5 3.7 2 0 7.2-2 13.1-4.9 5.4-2.8 10-5 10.2-5.1.3 0 4.3-1.9 9.1-4 4.7-2.2 9.2-4 10-4 .8 0 1.4-.5 1.4-1 0-.6 1.3-1 2.8-1 1.5 0 3.2-.4 3.8-.9.5-.5 3.6-1.4 6.9-2 3.3-.6 8.5-1.8 11.5-2.6s6.7-1.6 8.2-1.7c1.5-.1 2.8-.6 2.8-1s1.1-.8 2.4-.8c1.3 0 3.9-.6 5.7-1.4 3.3-1.4 7.9-.5 7.9 1.6 0 .4.6.8 1.4.8.7 0 2.7.7 4.2 1.5 1.6.8 3.7 1.5 4.6 1.5.9 0 1.9.4 2.3.9.3.5 2.2 1.5 4.3 2.1 3.7 1.2 17.2 6.6 24.7 10 7.1 3.2 8.4 3.4 7.8 1-.5-1.9-4.9-5-7.2-5-.8 0-11.9-4.5-25.6-10.4-1.6-.7-5.6-2.3-8.7-3.6-3.2-1.2-5.8-2.7-5.8-3.2s-.4-.6-1-.3c-.5.3-1 .4-1 .1 0-.3 3.5-2.2 7.8-4.1 4.2-2 8.9-4.3 10.4-5.1 1.4-.7 3.3-1.4 4.1-1.4.9 0 1.7-.4 1.9-.9.3-.8 5.9-3.6 36.3-18 8.3-3.9 15.7-7.5 16.5-8 2.3-1.3 1.8-3.6-.7-3.7-1.3-.1-2.3.2-2.3.7 0 .4-1.9 1.4-4.2 2.1-2.4.6-4.7 1.8-5.1 2.5-.4.7-1.3 1.3-2 1.3s-7.9 3.4-16.2 7.5c-8.2 4.1-15.7 7.5-16.7 7.5-.9 0-1.8.3-2 .7-.1.5-3.4 2.3-7.3 4.2-3.8 1.8-9.1 4.4-11.7 5.7-2.7 1.3-4.8 2.1-4.8 1.7 0-.5-.4-.3-.8.3-1.5 2.3-14.1 7.3-24.7 9.8-10.3 2.4-23.4 5.6-31.5 7.6-1.9.5-3.7.7-3.9.4-.3-.3.5-.7 1.7-1.1 1.2-.3 2.2-.9 2.2-1.4 0-.5-.7-.6-1.5-.3-.9.4-1.5 0-1.5-1 0-1.9 1-2 4.4-.5 1.6.8 3.3.8 5.3.1 2.5-.9 2.6-1 .8-1.7-1.1-.4-3.3-1.3-5-2-2.6-1.2-3.1-1.2-4.3.6-.7 1-1.8 1.9-2.3 1.9-.6 0-5.5 2.2-11 4.9-5.4 2.8-9.9 4.7-9.9 4.3 0-.4-.4-.2-.8.4-.4.5-2.5 1.8-4.7 2.8-2.2 1-6.7 3.1-9.9 4.7s-6.1 2.7-6.4 2.4c-.7-.6-1.8 0 11.8-6.6 24.7-12.1 30.8-14.9 31.9-14.9.6 0 1.1-.4 1.1-.8 0-.8 14.8-12.9 18-14.7 1-.6 3.5-2.5 5.5-4.3 2-1.9 3.9-3.1 4.3-2.7.4.3 0 1.1-.8 1.6-1.2.8-1.2 1.2-.2 1.6.7.3 2.5 1.5 4 2.7 1.5 1.2 4.6 3.5 7 5 2.4 1.6 4.6 3.6 5.1 4.3.9 1.6 6.1 1.4 6.3-.2 0-.6-4-3.7-9-7-4.9-3.3-9.5-7-10.1-8.2-.9-1.9-.6-2.5 1.9-4.3 1.7-1.2 3-1.8 3-1.5 0 .4.7-.1 1.6-.9.8-.9 2.4-1.6 3.3-1.6 1 0 2.4-.7 3.1-1.5.7-.8 2.1-1.5 3.1-1.5s2.1-.5 2.4-1c1.1-1.8 3-1 3.1 1.3.2 2.5 7.1 17.4 9 19.4 1 1 1.9.9 4.3-.3 1.7-.9 3.1-2.1 3.1-2.9 0-.7-2.2-5.7-5-11.1-2.7-5.4-5-10-5-10.3 0-1.2 24.7-13.1 27.1-13.1 1.1 0 1.8-.4 1.5-.9-.5-.8 3.1-2.3 4.5-1.8.4.1 1.5-.5 2.5-1.4 1.6-1.3 26.7-13.9 27.8-13.9.4 0 5.7 11.8 5.6 12.5 0 .3 2 3.5 4.5 7 2.5 3.6 4.5 7.5 4.5 8.7 0 1.9.2 2 1 .8.8-1.3 1-1.2 1 .4s.5 1.8 3.8 1.2c2-.4 4.2-.8 4.9-.8.7-.1 1-.5.7-1-.3-.4.2-1.1 1-1.4 2.4-.9 1.9-3.6-1.4-8.2-1.9-2.7-2.5-4.2-1.7-4.6.8-.3.6-.5-.3-.5-1.9-.1-8.3-13.3-12-24.6-1.3-4.1-2-5-4-5.2-1.4-.1-4 .7-5.7 1.9zM230 232.5c-.7.8-1.8 1.5-2.4 1.5-.6 0-.2-.7.8-1.5 2.5-1.9 3.2-1.9 1.6 0zm-46 9.9c12.5 4.6 11.8 3.6 6.3 8.2-2.6 2.2-6.1 4.9-7.8 6-1.6 1-3.9 2.7-4.9 3.6-1 1-2.4 1.5-2.9 1.1-.6-.3-.7-.1-.3.5.9 1.5-3.7 4.4-5.8 3.6-2-.8-1.9-1.1.5-4.9 2.3-3.7 2.1-3.3 5.6-12.8 1.5-4.2 2.8-7.7 2.8-7.7s2.9 1.1 6.5 2.4zm-13 36.1c0 .2-1.3 1.1-3 2-3.3 1.7-4 1-1.2-1.1 1.7-1.3 4.2-1.9 4.2-.9zm-7.5 3.4c-1.3 1.2-22.7 12.1-23.7 12.1-2.5 0 0-2 5.5-4.3 3.4-1.4 8.7-3.9 11.7-5.5 5.6-3 8.2-4 6.5-2.3z"
     id="path3756" />
  <path
     d="M223 214.4c0 2.1.6 3.6 1.5 4 1.2.4 1.5-.2 1.5-2.8 0-2.1-.6-3.6-1.5-4-1.2-.4-1.5.2-1.5 2.8zM217.2 216.2c.2 2.5.8 3.3 2.3 3.3 2.4 0 2.7-2.3.7-4.8-2.3-2.6-3.4-2.1-3 1.5zM211.3 214.7c-1.5.5-1.8 5.9-.4 6.7 1.5 1 4.1-.5 4.1-2.3-.1-2.3-2.3-4.9-3.7-4.4zM202.6 217.5c-.9 2.3-.8 5.3.2 5.9.5.3 1.9.2 3.1-.1 3.1-.8 2.7-6.6-.5-7.1-1.3-.2-2.4.4-2.8 1.3zM231 275.5c-1 1.2-1 1.9-.2 2.7 2.3 2.3 1.2 2.6-4 1.3-9.4-2.3-21.6-3.8-25.5-3l-3.8.8 3 .9c2.7.7 12.5 2.4 19.6 3.3 4.9.6 8.9 1.7 8.9 2.4 0 .4.6.8 1.3.8 1.3.1 9.4 3.3 16.3 6.4 2.3 1.1 4.5 1.9 4.9 1.9.8 0 7.3 2.8 12.5 5.4 3.1 1.5 11 2.1 11 .8 0-.9-5.8-3.8-13.5-6.9-1.8-.7-2.3-1.2-1.3-1.2 1.5-.1 11.1 3.8 26.5 10.5 1.7.8 4.5 1.7 6.2 2 1.7.4 3.6 1.3 4.2 2 1.7 2.1 3.4 1.7 4.7-1.1 1-2.3.9-2.5-1.6-3.1-1.5-.4-8.4-3.1-15.3-6.1-7-2.9-13.3-5.3-14.1-5.3-.8 0-1.8-.4-2.3-.8-.6-.5-4.1-2.1-8-3.7-10.4-4.1-18.5-7.5-23.1-9.6-4.9-2.3-4.8-2.3-6.4-.4zm10.4 7.4c2.3 1 5 2.2 6.1 2.6 1.3.5 1.6.9.7 1.2-.7.3-4.1-.9-7.5-2.6-6.7-3.3-6-4.3.7-1.2zm12.2 5.8c-.8.8-3.6-.5-3.6-1.7 0-.7.6-.7 2.1 0 1.1.7 1.8 1.4 1.5 1.7zM304 303.5c-.4.5-1.1 2.1-1.5 3.5-.5 2.3-.2 2.7 3.2 4 2.1.8 4.1 1.6 4.4 1.8.8.4 3.1-7.7 2.5-8.7-.9-1.3-7.6-1.8-8.6-.6zM145 314.6c-2.4 3.7-1.9 5.4 2.4 9.1 5.4 4.7 1.5 7.3-4.9 3.3-2.5-1.5-3.4-1.7-3.8-.7-.4 1.1 2.6 6 3.5 5.7.2-.1 1.9.1 4 .5 2.9.5 4 .3 5.6-1.3 3.2-3.2 3.1-6.3-.6-10.1-1.7-1.9-3.2-3.8-3.2-4.2 0-1.7 2.1-1.9 5.5-.5 3.2 1.4 3.5 1.4 3.5-.3 0-1.8-3.8-4.2-7.7-4.6-1.6-.2-2.8.6-4.3 3.1zM247.5 312.2c-.5.5-1.8 1.4-2.8 2.1-1.8 1.3-1.8 1.4.1 5.7 1.1 2.5 2.8 6.6 3.7 9.2 1.8 5.1 2.5 5.7 4.5 3.3 1.1-1.3 1.1-2 0-4.1-2.4-4.5 2.5-5.8 6.5-1.7 1 1 2.4 1.3 4.1.9 2.6-.7 2.6-.7.8-2.8-1.1-1.1-2.9-2.4-4.1-2.9-1.5-.6-2.3-1.7-2.3-3.3 0-5-1.7-7.6-5-7.6-1.7 0-3 .5-3 1.2 0 .9-.2 1-.8.2-.4-.7-1.1-.8-1.7-.2zm6.5 5.8c0 4.2-3.9 4.9-5.2 1-.7-2 2-5 3.8-4.3.8.3 1.4 1.8 1.4 3.3zM163.2 319.7c-.7 1.6-1.6 4.8-2.2 7.3-.6 2.5-1.2 4.9-1.3 5.5-.1.5-.6 1.6-1.1 2.3-.4.7-.6 1.4-.5 1.6 1.2.8 12.5 3.4 13.1 3 1.9-1.2.5-3.2-2.7-3.8-3.9-.8-4.9-1.8-4-4.5.5-1.6 1.3-1.8 4.5-1.4 5 .7 5.2-.8.4-3-4.5-2.2-3.9-4.1 1.4-4.5 6.6-.5 4.9-3.2-2.9-4.6-3.3-.6-3.7-.4-4.7 2.1zM229.4 318.8c-1.7.9-3 2.4-2.9 3.2.2.8.6 2.8 1 4.5 1.4 6.4 2.2 11.5 1.6 11.5-.3 0 0 .4.7.9 1.7 1.1 12.3-1.9 12.9-3.6.7-1.8-.2-2.7-1.8-1.7-2.4 1.5-6.9 1-7.5-.8-.8-2.5.3-3.8 3.2-3.8 1.8 0 2.4-.5 2.4-2.1 0-1.8-.5-2-3.7-1.7-4.7.4-5.6-1.9-1.4-3.5 1.9-.7 3.1-1.8 3.1-2.9 0-2.3-3.4-2.3-7.6 0zM181 327.2c-2 10.5-2.2 13.8-.4 14.5 2.1.8 2.3.4 3-5.8.8-7.3 2-8.2 3.5-2.5 1.5 6 4 6.2 6.3.5 2.2-5.4 4-4.2 3.2 2.3-.8 5.6-.3 6.8 2.2 6.2 1.5-.4 1.7-1.8 1.7-10.2 0-9.4-.1-9.7-2.3-10-1.9-.3-2.7.5-4.5 4.7-1.1 2.8-2.4 5.1-2.8 5.1-.4 0-1.6-2.4-2.7-5.3-1.4-3.6-2.6-5.3-3.9-5.5-1.7-.3-2.2.6-3.3 6zM214.7 321.7c-.4.3-2.2.6-4.1.5l-3.3-.1.2 5.7c.1 3.1.3 7.8.4 10.4.1 4.4.2 4.7 2.3 3.9 1.6-.6 2.2-1.6 2.3-3.6 0-2.3.6-3 3.2-3.9 5-1.7 6.6-3.8 5.8-7.5-.8-3.9-5-7.2-6.8-5.4zm2 4.4c1.7 1.7.3 4.9-2.2 4.9s-3.8-2.1-2.9-4.5c.7-1.7 3.5-2 5.1-.4zM286 331c0 .5-.8 1-1.7 1-3.2.1-6.6 3.8-6.5 7.2.1 5 2.3 6.5 7.7 5 5.9-1.6 8.5-1.5 8.5.1 0 2-4.2 5.5-7 5.9-1.4.2-2.6 1.1-2.8 2.1-.3 1.7.1 1.8 3 1.2 1.8-.4 4-1.3 4.9-2.1.8-.8 2-1.4 2.6-1.4 3.4 0 5.5-6.9 3-10.1-1.4-1.8-6.4-3.3-6.9-2-.2.4-2 1.1-4.1 1.5-2.9.6-3.9.4-4.3-.9-.7-1.8.5-3.5 2.7-3.9 4.7-1 7-4.6 2.9-4.6-1.1 0-2 .4-2 1zM114.3 333.2c-2.3 1.1-3.9 4.2-3.4 6.8.1.8 1.9 3.1 3.8 5.2 5.7 5.9 1.7 8.2-4.9 2.8-2.3-1.9-3.9-2.6-4.3-2-1 1.7 2.4 6.1 5.6 7.3 1.6.6 2.9 1.4 2.9 1.7 0 1.5 6.2-.4 7.5-2.3 2.3-3.3 1.8-5.2-2.6-9.6-2.2-2.3-3.7-4.6-3.4-5.1.9-1.5 6.8.1 8.4 2.2 1.6 2.4 3.6.9 2.7-1.8-.5-1.5-8.6-6.7-9.8-6.3-.2 0-1.3.5-2.5 1.1zM265 342.5c-1 1.2-.8 2.5 1.2 6.7 1.4 2.9 3.1 6.8 3.9 8.5 1.4 3.3 3.2 4 5.9 2.3 1.1-.7 1.2-1.4.3-3.2-6-12.9-7.7-15.8-9.3-15.8-.4 0-1.3.7-2 1.5zM132.9 348.8c-1.7 3.7-3.8 7.9-4.6 9.4-1.3 2.7-1.3 2.9 1.3 4 2.3 1.1 2.8 1 4-.7.8-1 1.4-2.5 1.4-3.2 0-1.6.5-1.6 5.8.2 3.8 1.4 4.5 1.3 6.7-.1 1.3-.8 2.5-2.3 2.7-3.2.6-2.8-.4-6.2-1.7-6.2-.8 0-1.7-.9-2-2-.4-1.1-1-1.8-1.5-1.5-.5.3-2.7-.3-4.9-1.5l-4-2-3.2 6.8zm10.7.6c2.2 2.3 1.7 4.3-1.4 5.4-2.4.8-3.1.7-4-.9-1-1.5-.9-2.4 0-3.9 1.5-2.4 3.4-2.6 5.4-.6zM244 352.3c0 1.3.5 2.8 1.2 3.5.7.7.9 1.2.6 1.2-.7 0 2.5 10 3.7 12 .3.5 1.5.6 2.8.1 1.2-.5 4-1.4 6.2-2.1 5-1.6 6.5-2.8 5.9-4.5-.4-1.1-1.2-1.1-3.7-.3-1.8.6-3.7 1.4-4.2 1.9-.6.4-1.6.5-2.2.1-1.2-.7-3.7-6.9-4.7-11.5-.5-2-1.2-2.7-3.1-2.7-1.9 0-2.5.5-2.5 2.3zM158 353.5c0 1.4-.4 2.5-.9 2.5-.4 0-1.5 3.3-2.3 7.4l-1.5 7.5 4.1.6c2.3.4 5.6 1.1 7.3 1.6 1.8.6 3.7.8 4.2.4 2.1-1.3-.3-3.4-4.5-4.1-4.1-.6-4.5-.9-4.2-3.3.3-2.7 1-2.9 6.6-1.7 2.8.7 3.2.5 3.2-1.3 0-1.5-.6-2.1-2.1-2.1-2.9 0-5.9-1.8-5.9-3.5 0-1.2 1-1.4 5-1 4 .4 5 .2 5-1 0-1.7-1.8-2.6-5.4-2.9-1.3 0-2.2-.4-1.9-.9.2-.4-1.2-.7-3.1-.7-3.2 0-3.6.3-3.6 2.5zM223.6 356.5c-.9 1.3-1.6 3.2-1.6 4.2 0 1.9-2.2 10.5-3.5 13.5-1.2 3 4 2.3 6.2-.8 2.4-3.2 9.2-4.5 11.2-2 1.5 1.7 3.9 2 5.9.7 1-.6.3-2-2.7-5.9-2.3-2.8-4.1-5.4-4.1-5.8 0-.3-.9-1.9-2.1-3.5-2.6-3.8-7-4-9.3-.4zm6.9 6.2c1.7 2.5 1.7 2.7-.1 4-3.4 2.5-4.7 1.2-3.8-3.6.8-3.8 1.6-3.9 3.9-.4zM183.2 357.4c-5.9 3.8-6.7 11.9-1.8 16.3 4.8 4.3 15.6 5.2 15.6 1.3 0-1.5-.7-1.7-4.2-1.3-3.5.4-4.8 0-6.7-1.8-2-1.8-2.2-2.8-1.7-6.3 1-6 4.2-7.8 10-5.6 2 .7 2.6.6 2.6-.5 0-1.9-1.6-2.8-6.5-3.5-3.2-.5-4.8-.2-7.3 1.4zM205.5 366.2l.3 10.3H211.5l-.3-9.4c-.1-5.2-.4-9.6-.6-9.8-.2-.2-1.5-.6-2.9-.8l-2.5-.5.3 10.2z"
     id="path3758" />
</svg>
